<?xml version="1.0" encoding="utf-8"?>
<!-- Generator: Adobe Illustrator 27.6.1, SVG Export Plug-In . SVG Version: 6.00 Build 0)  -->
<svg version="1.1" id="Layer_1" xmlns="http://www.w3.org/2000/svg" xmlns:xlink="http://www.w3.org/1999/xlink" x="0px" y="0px"
	 viewBox="0 0 257 281.8" style="enable-background:new 0 0 257 281.8;" xml:space="preserve">
<style type="text/css">
	.st0{fill-rule:evenodd;clip-rule:evenodd;fill:#26A8E0;}
	.st1{fill-rule:evenodd;clip-rule:evenodd;fill:#269FD8;}
	.st2{fill-rule:evenodd;clip-rule:evenodd;fill:#C3E6F4;}
	.st3{fill-rule:evenodd;clip-rule:evenodd;fill:#2693D0;}
	.st4{fill-rule:evenodd;clip-rule:evenodd;fill:#2788C8;}
	.st5{fill-rule:evenodd;clip-rule:evenodd;fill:#2B3C92;}
	.st6{fill-rule:evenodd;clip-rule:evenodd;fill:#334698;}
	.st7{fill-rule:evenodd;clip-rule:evenodd;fill:#27A9E0;}
	.st8{fill-rule:evenodd;clip-rule:evenodd;fill:#287BBF;}
	.st9{fill-rule:evenodd;clip-rule:evenodd;fill:#2C4E9F;}
	.st10{fill-rule:evenodd;clip-rule:evenodd;fill:#2958A6;}
	.st11{fill-rule:evenodd;clip-rule:evenodd;fill:#286FB7;}
	.st12{fill-rule:evenodd;clip-rule:evenodd;fill:#2960AB;}
	.st13{fill-rule:evenodd;clip-rule:evenodd;fill:#2963AD;}
	.st14{fill-rule:evenodd;clip-rule:evenodd;fill:#2B69B1;}
	.st15{fill-rule:evenodd;clip-rule:evenodd;fill:#2A57A5;}
	.st16{fill-rule:evenodd;clip-rule:evenodd;fill:#2A4E9F;}
	.st17{fill-rule:evenodd;clip-rule:evenodd;fill:#2D7BBE;}
	.st18{fill-rule:evenodd;clip-rule:evenodd;fill:#2AAAE0;}
	.st19{fill-rule:evenodd;clip-rule:evenodd;fill:#2B4497;}
	.st20{fill-rule:evenodd;clip-rule:evenodd;fill:#2A88C7;}
	.st21{fill-rule:evenodd;clip-rule:evenodd;fill:#29A9E0;}
	.st22{fill-rule:evenodd;clip-rule:evenodd;fill:#2796D2;}
	.st23{fill-rule:evenodd;clip-rule:evenodd;fill:#259FD9;}
	.st24{fill-rule:evenodd;clip-rule:evenodd;fill:#29A8E0;}
</style>
<g>
	<g>
		<path class="st0" d="M46.1,8.9c-2.2,1.1-4.1,2.7-5.5,5c0.1,7.1-0.7,13.9-2.5,20.5c2.1,0.3,2.5,1.2,1,2.5c-3.7-3.7-7.7-7-12-10
			c-0.6,0.1-0.9,0.5-1,1c-1,12.5-1.3,25.2-1,38c-7,4.7-8.9,11-5.5,19c1.7,1.9,3.6,3.6,5.5,5c0.2,38.3,0,76.7-0.5,115
			c-4.3,8.5-10.8,10.7-19.5,6.5c-2.3-1.6-3.8-3.8-4.5-6.5c-1-62.4-0.7-124.7,1-187C7.5,2.7,18.3-2.8,34.1,1.4
			C38.6,3.2,42.6,5.7,46.1,8.9z"/>
	</g>
	<g>
		<path class="st1" d="M46.1,8.9c5,4.3,9.7,9,14,14c-1.3,0-2.7,0-4,0c0,3.9,1.1,4.5,3.5,2c1.3,1.4,1.3,3.1,0,5
			c-0.8,9.4-0.6,18.7,0.5,28c-7.3-6.7-14.3-13.7-21-21c1.5-1.3,1.1-2.2-1-2.5c1.8-6.6,2.6-13.4,2.5-20.5C42,11.6,43.8,9.9,46.1,8.9z
			"/>
	</g>
	<g>
		<path class="st2" d="M26.1,27.9c-0.3,12.5,0,24.8,1,37c0,0.3,0,0.7,0,1c-0.7,0-1.3,0-2,0C24.7,53,25.1,40.4,26.1,27.9z"/>
	</g>
	<g>
		<path class="st3" d="M60.1,22.9c9,8.3,17.7,17,26,26c-1.5,1-1.8,2.2-1,3.5c-1.7,0.3-3.2-0.2-4.5-1.5c-0.7,1-0.7,2,0,3
			c0.3-0.3,0.7-0.7,1-1c0.3,8.3,0.7,16.7,1,25c1.9,1.2,2.7,2.8,2.5,5c-8.7-8-17-16.3-25-25c-1.1-9.3-1.3-18.6-0.5-28
			c1.3-1.9,1.3-3.6,0-5c-2.4,2.5-3.5,1.9-3.5-2C57.4,22.9,58.7,22.9,60.1,22.9z"/>
	</g>
	<g>
		<path class="st4" d="M86.1,48.9c6.3,5.7,12.3,11.7,18,18c-1,0.5-2,1-3,1.5c1.3,4.1,2,8.4,2,13c-0.4,5-0.4,9.8,0,14.5
			c-0.7,0.3-1.3,0.7-2,1c1.8,1.2,2.8,2.9,3,5c-6.7-6-13-12.3-19-19c0.2-2.2-0.6-3.8-2.5-5c-0.3-8.3-0.7-16.7-1-25
			c-0.3,0.3-0.7,0.7-1,1c-0.7-1-0.7-2,0-3c1.3,1.3,2.8,1.8,4.5,1.5C84.3,51.1,84.6,49.9,86.1,48.9z"/>
	</g>
	<g>
		<path class="st5" d="M25.1,65.9c0.7,0,1.3,0,2,0c0.5,1.2,1.9,2.1,4,2.5c-0.7,0.3-1.3,0.7-2,1c1.1,6.6,1.1,12.9,0,19
			c-0.3,1-1,1.5-2,1.5c-0.7,0-1.3,0-2,0c-1.9-1.4-3.8-3.1-5.5-5C16.2,76.9,18,70.6,25.1,65.9z"/>
	</g>
	<g>
		<path class="st6" d="M27.1,65.9c0-0.3,0-0.7,0-1c11.6-0.2,16.8,5.5,15.5,17c-3.1,7.1-8.3,9.8-15.5,8c1,0,1.7-0.5,2-1.5
			c1.1-6.1,1.1-12.4,0-19c0.7-0.3,1.3-0.7,2-1C28.9,67.9,27.6,67.1,27.1,65.9z"/>
	</g>
	<g>
		<path class="st7" d="M239.1,67.9c6.5-0.3,11.4,2.3,14.5,8c0.7,25.3,0.7,50.7,0,76c-4.1,7.9-10.3,10-18.5,6.5c-2.2-1.9-4-4-5.5-6.5
			c-0.7-25.3-0.7-50.7,0-76C231.7,71.9,234.9,69.2,239.1,67.9z"/>
	</g>
	<g>
		<path class="st8" d="M104.1,66.9c9.3,8.7,18.3,17.7,27,27c-1,0-2,0-3,0c0.1,2.8,0.4,5.3,1,7.5c-0.8,5.4-1.3,10.9-1.5,16.5
			c-1.1,1.6-1.9,3.2-2.5,5c-7.3-6.7-14.3-13.7-21-21c-0.2-2.1-1.2-3.8-3-5c0.7-0.3,1.3-0.7,2-1c-0.4-4.7-0.4-9.5,0-14.5
			c0-4.6-0.7-8.9-2-13C102.1,67.9,103.1,67.4,104.1,66.9z"/>
	</g>
	<g>
		<path class="st9" d="M64.1,93.9c1.4,10.4,2.4,21.3,3,32.5c-0.6,1.3-1.3,2.5-2,3.5c-6.6-6.1-13.1-12.5-19.5-19
			c-5.5-13.5-1-20.3,13.5-20.5C61.1,91.1,62.8,92.2,64.1,93.9z"/>
	</g>
	<g>
		<path class="st10" d="M64.1,93.9c7.7,7,15,14.3,22,22c-0.2,9,0,18,0.5,27c0.5,0.5,1,1,1.5,1.5c-2.2,1-4.6,1.5-7,1.5
			c-5.7-5-11-10.3-16-16c0.7-1,1.4-2.2,2-3.5C66.4,115.2,65.4,104.3,64.1,93.9z"/>
	</g>
	<g>
		<path class="st11" d="M131.1,93.9c7,6.3,13.7,13,20,20c-0.6,0.4-1,1.1-1,2c0.6,8.9,1.3,17.7,2,26.5c-3.2,0.3-3.6,1.1-1,2.5
			c-0.9,1.2-0.9,2.6,0,4c-9-8.3-17.7-17-26-26c0.6-1.8,1.4-3.4,2.5-5c0.2-5.6,0.7-11.1,1.5-16.5c-0.6-2.2-0.9-4.7-1-7.5
			C129.1,93.9,130.1,93.9,131.1,93.9z"/>
	</g>
	<g>
		<path class="st12" d="M86.1,115.9c4,3.3,7.7,7,11,11c-0.3,9.9-0.3,20.5,0,32c-1,0-2,0-3,0c-4.7-4-9-8.3-13-13c2.4,0,4.8-0.5,7-1.5
			c-0.5-0.5-1-1-1.5-1.5C86.1,133.9,85.9,124.9,86.1,115.9z"/>
	</g>
	<g>
		<path class="st13" d="M151.1,113.9c8.3,7.7,16.3,15.7,24,24c-0.4,10.7-1.4,21.3-3,32c-7.3-6.7-14.3-13.7-21-21
			c-0.9-1.4-0.9-2.8,0-4c-2.6-1.4-2.2-2.2,1-2.5c-0.7-8.8-1.4-17.6-2-26.5C150.1,115,150.4,114.3,151.1,113.9z"/>
	</g>
	<g>
		<path class="st14" d="M97.1,126.9c5.6,5.1,11.1,10.5,16.5,16c3.1,8,0.9,14.2-6.5,18.5c-3.3,0.7-6.7,0.7-10,0
			c-1.4-0.4-2.4-1.2-3-2.5c1,0,2,0,3,0C96.8,147.4,96.8,136.7,97.1,126.9z"/>
	</g>
	<g>
		<path class="st15" d="M175.1,137.9c9,8.3,17.7,17,26,26c-2.4,1.2-4.4,1.2-6,0c0.8,8.6,1.3,17.3,1.5,26c2.5,1.4,2.7,2.5,0.5,3.5
			c0.8,0.7,1.1,1.5,1,2.5c-9-8.3-17.7-17-26-26C173.6,159.2,174.6,148.6,175.1,137.9z"/>
	</g>
	<g>
		<path class="st16" d="M201.1,163.9c4.7,4,9,8.3,13,13c-1.4,0.4-2.3,1.4-2.5,3c-0.2,8.9-0.7,17.7-1.5,26.5c1.3,0.8,2,2,2,3.5
			c-5-4.3-9.7-9-14-14c0.1-1-0.2-1.8-1-2.5c2.2-1,2-2.1-0.5-3.5c-0.2-8.7-0.7-17.4-1.5-26C196.7,165.1,198.7,165.1,201.1,163.9z"/>
	</g>
	<g>
		<path class="st17" d="M131.1,170.9c12.7-1.2,18.5,4.5,17.5,17c-3.7,7.3-9.6,9.8-17.5,7.5C120.4,187.2,120.4,179,131.1,170.9z"/>
	</g>
	<g>
		<path class="st18" d="M237.1,169.9c12.5-1,18,4.7,16.5,17c-3.7,7.4-9.6,9.9-17.5,7.5c-6.2-3.8-8.3-9.3-6.5-16.5
			C231.2,174.4,233.7,171.7,237.1,169.9z"/>
	</g>
	<g>
		<path class="st19" d="M214.1,176.9c9.7,9,19,18.3,28,28c-11.6,1.9-15.6,8.6-12,20c-1.8,0-3.5-0.5-5-1.5c-4.5-4.4-8.9-8.9-13-13.5
			c0-1.5-0.7-2.7-2-3.5c0.8-8.8,1.3-17.6,1.5-26.5C211.8,178.3,212.6,177.3,214.1,176.9z"/>
	</g>
	<g>
		<path class="st20" d="M157.1,195.9c16.4,0.7,20.7,8.2,13,22.5c-15.2,5.8-22,0.7-20.5-15.5C151.3,199.6,153.8,197.3,157.1,195.9z"
			/>
	</g>
	<g>
		<path class="st21" d="M242.1,204.9c11.1,2.6,14.6,9.2,10.5,20c-7.5,8-15,8-22.5,0C226.4,213.5,230.4,206.8,242.1,204.9z"/>
	</g>
	<g>
		<path class="st22" d="M199.1,228.9c-1,13-1,24.7,0,35c-8-7.5-15.8-15.1-23.5-23c-4-15.6,1.8-21.8,17.5-18.5
			C195.3,224.4,197.3,226.6,199.1,228.9z"/>
	</g>
	<g>
		<path class="st23" d="M199.1,228.9c3.7,3,7,6.3,10,10c-0.5,1.3-0.6,2.9-0.5,5c1.1-2.2,2.3-2.3,3.5-0.5c-0.7,0.7-1.3,1.3-2,2
			c1.3,4.1,2,8.4,2,13c-0.2,4.2-0.3,8.3-0.5,12.5c-2-0.9-4.2-1.3-6.5-1c-2.3-1.7-4.3-3.7-6-6C198,253.6,198,241.9,199.1,228.9z"/>
	</g>
	<g>
		<path class="st24" d="M209.1,238.9c6,6,12.3,11.7,19,17c8.8-5.3,16-3.6,21.5,5c0.8,10.6-4,17.4-14.5,20.5
			c-12.2,1.8-22.2-2.1-30-11.5c2.3-0.3,4.5,0.1,6.5,1c0.2-4.2,0.3-8.3,0.5-12.5c0-4.6-0.7-8.9-2-13c0.7-0.7,1.3-1.3,2-2
			c-1.2-1.8-2.4-1.7-3.5,0.5C208.4,241.8,208.6,240.2,209.1,238.9z"/>
	</g>
</g>
</svg>
