<?xml version="1.0" encoding="utf-8"?>
<!-- Generator: Adobe Illustrator 27.6.1, SVG Export Plug-In . SVG Version: 6.00 Build 0)  -->
<svg version="1.1" id="Layer_1" xmlns="http://www.w3.org/2000/svg" xmlns:xlink="http://www.w3.org/1999/xlink" x="0px" y="0px"
	 viewBox="0 0 627 221.1" style="enable-background:new 0 0 627 221.1;" xml:space="preserve">
<style type="text/css">
	.st0{opacity:0.917;fill-rule:evenodd;clip-rule:evenodd;fill:#FEFFFE;enable-background:new    ;}
	.st1{opacity:0.877;fill-rule:evenodd;clip-rule:evenodd;fill:#FEFFFE;enable-background:new    ;}
	.st2{opacity:0.921;fill-rule:evenodd;clip-rule:evenodd;fill:#FEFFFE;enable-background:new    ;}
	.st3{opacity:0.915;fill-rule:evenodd;clip-rule:evenodd;fill:#FEFFFE;enable-background:new    ;}
	.st4{opacity:0.928;fill-rule:evenodd;clip-rule:evenodd;fill:#FEFFFE;enable-background:new    ;}
	.st5{opacity:0.918;fill-rule:evenodd;clip-rule:evenodd;fill:#FEFFFE;enable-background:new    ;}
	.st6{opacity:0.897;fill-rule:evenodd;clip-rule:evenodd;fill:#FEFFFE;enable-background:new    ;}
	.st7{opacity:0.857;fill-rule:evenodd;clip-rule:evenodd;fill:#FEFFFE;enable-background:new    ;}
	.st8{opacity:0.858;fill-rule:evenodd;clip-rule:evenodd;fill:#FEFFFE;enable-background:new    ;}
	.st9{opacity:0.899;fill-rule:evenodd;clip-rule:evenodd;fill:#FEFFFE;enable-background:new    ;}
	.st10{opacity:0.882;fill-rule:evenodd;clip-rule:evenodd;fill:#FEFFFE;enable-background:new    ;}
	.st11{opacity:0.733;fill-rule:evenodd;clip-rule:evenodd;fill:#FEFFFE;enable-background:new    ;}
	.st12{opacity:0.884;fill-rule:evenodd;clip-rule:evenodd;fill:#FEFFFE;enable-background:new    ;}
	.st13{opacity:0.871;fill-rule:evenodd;clip-rule:evenodd;fill:#FEFFFE;enable-background:new    ;}
	.st14{opacity:0.895;fill-rule:evenodd;clip-rule:evenodd;fill:#FEFFFE;enable-background:new    ;}
	.st15{opacity:0.848;fill-rule:evenodd;clip-rule:evenodd;fill:#FEFFFE;enable-background:new    ;}
	.st16{opacity:0.823;fill-rule:evenodd;clip-rule:evenodd;fill:#FEFFFE;enable-background:new    ;}
	.st17{opacity:0.892;fill-rule:evenodd;clip-rule:evenodd;fill:#FEFFFE;enable-background:new    ;}
</style>
<g>
	<g>
		<path class="st0" d="M9.5,1.7c4.3,0,8.3,1.2,12,3.5c26.5,26.5,53,53,79.5,79.5c1-6.3,4.5-8.5,10.5-6.5c3.9,3.5,3.9,7,0,10.5
			c-1.6,0.7-3.3,1.2-5,1.5c1.9,1.9,4.1,3.4,6.5,4.5c2.5,7.8-0.3,11-8.5,9.5c-1.5-1.3-3.2-2.3-5-3C70.7,72.4,41.8,43.6,13,14.7
			c-0.5,5.3-0.7,10.7-0.5,16c8.1,0.5,10.1,4.3,6,11.5c-2,0.5-4,0.7-6,0.5c0.2,17.3,0,34.7-0.5,52c-4.2,4.2-7.8,3.9-11-1
			c-0.7-27.3-0.7-54.7,0-82C2.3,6.9,5.1,3.6,9.5,1.7z"/>
	</g>
	<g>
		<path class="st1" d="M104.5,32.7c2.4-0.2,4.7,0,7,0.5c1.2,0.9,2,2.1,2.5,3.5c0.7,11,0.7,22,0,33c-2.6,4.1-6.1,5-10.5,2.5
			c-0.7-1.1-1.2-2.2-1.5-3.5c-0.7-10.7-0.7-21.3,0-32C102.7,35.2,103.5,33.9,104.5,32.7z"/>
	</g>
	<g>
		<path class="st2" d="M168.5,32.7c30.1,2.1,46.7,18.1,50,48c-1.9,24.9-14.9,40.4-39,46.5c-22,3.1-38.8-4.8-50.5-23.5
			c-11.8-28.5-4.7-50.7,21.5-66.5C156.5,35.1,162.5,33.6,168.5,32.7z M164.5,44.7c21.5-1.3,35.4,8.4,41.5,29
			c1.5,25.3-10.3,39.7-35.5,43c-23.6-2.9-35.5-16.3-35.5-40C138.1,59.8,148,49.1,164.5,44.7z"/>
	</g>
	<g>
		<path class="st3" d="M257.5,32.7c15.4,0,28.2,5.6,38.5,17c2.6,7.1,0.1,9.9-7.5,8.5c-12.7-13.6-27.7-16.9-45-10
			c-3.8,2.5-7,5.7-9.5,9.5c-0.9,3.3-0.1,6.2,2.5,8.5c16.3,5.7,32.7,11.3,49,17c10.1,4.7,13.9,12.6,11.5,23.5
			c-5.7,11.8-15.2,18.6-28.5,20.5c-18.3,2.8-33.4-2.7-45.5-16.5c-1.3-6.3,1.2-9.2,7.5-8.5c3.3,2.3,6.3,5,9,8c14.8,9.1,29.2,8.5,43-2
			c4.6-4.9,4.6-9.6,0-14c-16.7-5.5-33.4-11.1-50-17c-10.4-7.3-12.9-16.8-7.5-28.5C233.6,38.7,244.5,33.3,257.5,32.7z"/>
	</g>
	<g>
		<path class="st4" d="M311.5,32.7c5.4,0.9,7.9,4.2,7.5,10c16.3-13.1,32.8-13.3,49.5-0.5c2,2.6,4.2,5.1,6.5,7.5
			c10.1-13.8,23.6-19,40.5-15.5c13.5,4.2,22.3,13,26.5,26.5c0.7,21.7,0.7,43.3,0,65c-3.7,2.8-7,2.5-10-1c0-21.1-0.7-42.1-2-63
			c-8.7-16.8-21.5-21-38.5-12.5c-4.3,3.3-7.5,7.5-9.5,12.5c-1.3,20.9-2,41.9-2,63c-3,3.5-6.3,3.8-10,1c-0.1-21-0.7-42-2-63
			c-7.8-17-20.3-21.8-37.5-14.5c-4.9,2.9-8.4,7.1-10.5,12.5c-1.3,20.9-2,41.9-2,63c-3.2,4.9-6.8,5.2-11,1c-0.7-29.3-0.7-58.7,0-88
			C307.9,34.6,309.4,33.3,311.5,32.7z"/>
	</g>
	<g>
		<path class="st5" d="M496.5,32.7c21.1,0.6,36.2,10.3,45.5,29c1.6,3.8,2.6,7.8,3,12c0.7,17,0.7,34,0,51c-3,3.5-6.3,3.8-10,1
			c-1.1-4.2-1.8-8.6-2-13c-13.6,13.4-29.8,17.9-48.5,13.5c-26.3-10.3-37.1-29.5-32.5-57.5C459,46.8,473.9,34.8,496.5,32.7z
			 M491.5,44.7c29.5,0,43.3,14.7,41.5,44c-7.4,21.3-22.2,30.1-44.5,26.5c-25.2-11.2-32-29.3-20.5-54.5
			C474.1,52.8,482,47.4,491.5,44.7z"/>
	</g>
	<g>
		<path class="st0" d="M548.5,32.7c2.5,0.3,4.7,1.3,6.5,3c9.6,23.5,19.4,46.8,29.5,70c10.1-23.6,20.3-47.3,30.5-71
			c4.9-2.8,8.4-1.5,10.5,4c-17.5,42.9-35.5,85.6-54,128c-7.5,2.4-10.3-0.3-8.5-8c5-12.2,10.2-24.4,15.5-36.5
			C567.1,95.8,556,69.3,545,42.7C543.6,38.3,544.7,35,548.5,32.7z"/>
	</g>
	<g>
		<path class="st6" d="M23.5,41.7c2.2-0.1,4.2,0.4,6,1.5c7.5,7.5,15,15,22.5,22.5c0.7,8.2-2.8,10.7-10.5,7.5
			C34.7,66.4,27.8,59.6,21,52.7C18.6,48.2,19.4,44.5,23.5,41.7z"/>
	</g>
	<g>
		<path class="st7" d="M58.5,77.7c9.3,0.2,11.3,4,6,11.5c-7.2,1.5-10-1.3-8.5-8.5C56.7,79.5,57.5,78.5,58.5,77.7z"/>
	</g>
	<g>
		<path class="st8" d="M69.5,88.7c8.5-0.2,10.9,3.5,7,11c-7.6,2.5-10.8-0.1-9.5-8C68,90.9,68.9,89.9,69.5,88.7z"/>
	</g>
	<g>
		<path class="st9" d="M81.5,99.7c1.7-0.2,3.4,0,5,0.5c4.7,4.7,9.3,9.3,14,14c1.8,0.3,3.7,0.1,5.5-0.5c5.9,1.2,7.6,4.5,5,10
			c-3.4,3.7-7.6,4.9-12.5,3.5c-8.1-4.7-14.9-10.9-20.5-18.5C76.7,104.6,77.8,101.6,81.5,99.7z"/>
	</g>
	<g>
		<path class="st10" d="M223.5,151.7c12-0.3,24,0,36,1c1.4,1.8,1,3.3-1,4.5c-10,0.5-20,0.7-30,0.5c0,5.7,0,11.3,0,17
			c7-0.2,14,0,21,0.5c4,2,4,4,0,6c-7,0.5-14,0.7-21,0.5c0,5.7,0,11.3,0,17c10-0.2,20,0,30,0.5c2,1.2,2.4,2.7,1,4.5
			c-12.2,1.3-24.4,1.3-36.5,0C222.2,186.3,222.3,169,223.5,151.7z"/>
	</g>
	<g>
		<path class="st10" d="M306.5,151.7c1.6-0.2,3.1,0.1,4.5,1c0.5,5,0.7,10,0.5,15c2.7,0,5.3,0,8,0c0.1,5.3-2.6,7.3-8,6
			c-0.4,7.4,0.1,14.8,1.5,22c2,2.1,4.5,3.3,7.5,3.5c2.7,3.5,1.7,5.3-3,5.5c-4.9,0.3-8.4-1.7-10.5-6c-1.4-8.2-1.9-16.6-1.5-25
			c-3.9,0-5.6-2-5-6c1.7,0,3.3,0,5,0C305.2,162.3,305.6,157,306.5,151.7z"/>
	</g>
	<g>
		<path class="st11" d="M466.5,155.7c6.3,2.3,6.5,5,0.5,8C462.6,161.4,462.4,158.7,466.5,155.7z"/>
	</g>
	<g>
		<path class="st12" d="M264.5,167.7c2.7-0.5,4.6,0.5,5.5,3c5.5-2.9,11.3-3.7,17.5-2.5c5.7,2.3,9.2,6.5,10.5,12.5
			c0.8,7.9,0.6,15.7-0.5,23.5c-1.6,0.7-3.1,0.6-4.5-0.5c-0.1-8.1-0.8-16.1-2-24c-5.7-7.1-12-7.8-19-2c-0.7,1.3-1.3,2.7-2,4
			c-0.3,7.3-0.7,14.7-1,22c-1.7,1.3-3.3,1.3-5,0C263.2,191.6,263.4,179.6,264.5,167.7z"/>
	</g>
	<g>
		<path class="st13" d="M335.5,167.7c13.8-2.5,22.1,3,25,16.5c-0.1,1.4-0.4,2.8-1,4c-10,0.2-20,0.7-30,1.5c5.5,9.8,12.8,11.5,22,5
			c4.1,3.2,3.7,6-1,8.5c-20.4,4.2-29.3-3.9-26.5-24.5C326.4,173.5,330.3,169.8,335.5,167.7z M337.5,173.7c7.3-1,12.6,1.6,16,8
			c-8,1.2-16,1.3-24,0.5C331.7,178.9,334.4,176,337.5,173.7z"/>
	</g>
	<g>
		<path class="st14" d="M365.5,167.7c3.7-0.9,5.8,0.5,6.5,4c3.3-3.3,7.3-4.7,12-4c2.2,0.2,4.3,0.3,6.5,0.5c4,2.4,3.8,4.5-0.5,6.5
			c-6.9-2.4-12.6-0.7-17,5c-1.2,7.9-1.9,15.9-2,24c-1.7,1.3-3.3,1.3-5,0C365.5,191.7,365.3,179.7,365.5,167.7z"/>
	</g>
	<g>
		<path class="st15" d="M405.5,167.7c10.3-2.3,18.1,1.1,23.5,10c4,18.7-3.5,27.5-22.5,26.5c-2.5-0.5-4.7-1.7-6.5-3.5
			c-0.3,6-0.7,12-1,18c-2,2.7-4,2.7-6,0c-0.7-11.7-0.7-23.3,0-35C394.1,175.8,398.3,170.5,405.5,167.7z M407.5,173.7
			c15.2,0.4,19.7,7.4,13.5,21c-8.4,6.2-15.4,4.9-21-4C398.2,183.1,400.7,177.4,407.5,173.7z"/>
	</g>
	<g>
		<path class="st16" d="M434.5,167.7c2.9-0.2,5.2,0.8,7,3c5.6-2.9,11.6-3.7,18-2.5c4.2,2.8,3.8,5-1,6.5c-6.8-2.5-12.3-0.8-16.5,5
			c-1.3,7.6-1.9,15.2-2,23c-2,2.7-4,2.7-6,0C433.2,191,433.4,179.3,434.5,167.7z"/>
	</g>
	<g>
		<path class="st17" d="M464.5,167.7c2-0.2,3.8,0.1,5.5,1c0.7,11.7,0.7,23.3,0,35c-1.7,1.3-3.3,1.3-5,0
			C464.5,191.7,464.3,179.7,464.5,167.7z"/>
	</g>
	<g>
		<path class="st8" d="M482.5,167.7c9.2-2.1,16.6,0.6,22,8c-3,3.9-6,3.8-9-0.5c-4.4-1.9-8.7-1.9-13,0c-2,1.4-2.4,3.1-1,5
			c7,2.1,13.8,4.6,20.5,7.5c4.2,6.8,2.7,11.9-4.5,15.5c-9.9,3.8-17.9,1.4-24-7c2.4-4.3,5.1-4.3,8,0c6.1,3.8,11.4,3.1,16-2
			c-0.3-1.7-1.3-2.7-3-3c-6.6-1.8-13-4.3-19-7.5C472.3,176,474.7,170.7,482.5,167.7z"/>
	</g>
	<g>
		<path class="st10" d="M518.5,167.7c16.3-2.1,24.6,4.9,25,21c-10.3-0.2-20.7,0-31,0.5c5.5,10.3,13.2,12.2,23,5.5
			c3.7,2.3,3.7,4.8,0,7.5c-12.5,5.6-22,2.4-28.5-9.5C504.4,181.2,508.3,172.9,518.5,167.7z M520.5,173.7c7.4-1.3,12.8,1.4,16,8
			c-7.6,1-15.3,1.3-23,1C514.7,178.9,517,175.9,520.5,173.7z"/>
	</g>
</g>
</svg>
