<?xml version="1.0" encoding="utf-8"?>
<!-- Generator: Adobe Illustrator 27.6.1, SVG Export Plug-In . SVG Version: 6.00 Build 0)  -->
<svg version="1.1" id="Layer_1" xmlns="http://www.w3.org/2000/svg" xmlns:xlink="http://www.w3.org/1999/xlink" x="0px" y="0px"
	 viewBox="0 0 628 222" style="enable-background:new 0 0 628 222;" xml:space="preserve">
<style type="text/css">
	.st0{fill-rule:evenodd;clip-rule:evenodd;fill:#46EDF4;}
	.st1{fill-rule:evenodd;clip-rule:evenodd;fill:#47D7F0;}
	.st2{fill-rule:evenodd;clip-rule:evenodd;fill:#43C2EB;}
	.st3{fill-rule:evenodd;clip-rule:evenodd;fill:#1738D4;}
	.st4{fill-rule:evenodd;clip-rule:evenodd;fill:#355CBC;}
	.st5{fill-rule:evenodd;clip-rule:evenodd;fill:#4955B9;}
	.st6{fill-rule:evenodd;clip-rule:evenodd;fill:#56EAF0;}
	.st7{fill-rule:evenodd;clip-rule:evenodd;fill:#3BACEB;}
	.st8{fill-rule:evenodd;clip-rule:evenodd;fill:#1D52E4;}
	.st9{fill-rule:evenodd;clip-rule:evenodd;fill:#3665DB;}
	.st10{fill-rule:evenodd;clip-rule:evenodd;fill:#308CE5;}
	.st11{fill-rule:evenodd;clip-rule:evenodd;fill:#327AE1;}
	.st12{fill-rule:evenodd;clip-rule:evenodd;fill:#48EEF4;}
	.st13{fill-rule:evenodd;clip-rule:evenodd;fill:#3F8ADB;}
	.st14{fill-rule:evenodd;clip-rule:evenodd;fill:#2772E6;}
	.st15{fill-rule:evenodd;clip-rule:evenodd;fill:#2B5CD6;}
	.st16{fill-rule:evenodd;clip-rule:evenodd;fill:#DDFDFD;}
	.st17{fill-rule:evenodd;clip-rule:evenodd;fill:#61E8F0;}
	.st18{fill-rule:evenodd;clip-rule:evenodd;fill:#49A3E3;}
	.st19{fill-rule:evenodd;clip-rule:evenodd;fill:#1C45DE;}
	.st20{fill-rule:evenodd;clip-rule:evenodd;fill:#49EDF3;}
	.st21{fill-rule:evenodd;clip-rule:evenodd;fill:#6BE4E7;}
	.st22{fill-rule:evenodd;clip-rule:evenodd;fill:#5DBBE1;}
	.st23{fill-rule:evenodd;clip-rule:evenodd;fill:#60E6EF;}
	.st24{fill-rule:evenodd;clip-rule:evenodd;fill:#4DEDF3;}
	.st25{fill-rule:evenodd;clip-rule:evenodd;fill:#50D7EF;}
	.st26{fill-rule:evenodd;clip-rule:evenodd;fill:#47EEF4;}
	.st27{fill-rule:evenodd;clip-rule:evenodd;fill:#50EAF1;}
	.st28{fill-rule:evenodd;clip-rule:evenodd;fill:#2931A5;}
	.st29{fill-rule:evenodd;clip-rule:evenodd;fill:#8184E6;}
	.st30{fill-rule:evenodd;clip-rule:evenodd;fill:#3A42A5;}
	.st31{fill-rule:evenodd;clip-rule:evenodd;fill:#2131BB;}
	.st32{fill-rule:evenodd;clip-rule:evenodd;fill:#2A35C6;}
	.st33{fill-rule:evenodd;clip-rule:evenodd;fill:#363BA4;}
	.st34{fill-rule:evenodd;clip-rule:evenodd;fill:#4248B2;}
	.st35{fill-rule:evenodd;clip-rule:evenodd;fill:#3038AC;}
	.st36{fill-rule:evenodd;clip-rule:evenodd;fill:#F9FAFA;}
	.st37{fill-rule:evenodd;clip-rule:evenodd;fill:#2A33BF;}
	.st38{fill-rule:evenodd;clip-rule:evenodd;fill:#3B3EA4;}
	.st39{fill-rule:evenodd;clip-rule:evenodd;fill:#2C36A4;}
	.st40{fill-rule:evenodd;clip-rule:evenodd;fill:#4246B3;}
	.st41{fill-rule:evenodd;clip-rule:evenodd;fill:#1A2ECA;}
	.st42{fill-rule:evenodd;clip-rule:evenodd;fill:#1F2EC9;}
	.st43{fill-rule:evenodd;clip-rule:evenodd;fill:#363CB3;}
	.st44{fill-rule:evenodd;clip-rule:evenodd;fill:#1D2DC9;}
	.st45{fill-rule:evenodd;clip-rule:evenodd;fill:#1C2EC6;}
	.st46{fill-rule:evenodd;clip-rule:evenodd;fill:#2C36A6;}
	.st47{fill-rule:evenodd;clip-rule:evenodd;fill:#202FCB;}
	.st48{fill-rule:evenodd;clip-rule:evenodd;fill:#3239BC;}
	.st49{fill-rule:evenodd;clip-rule:evenodd;fill:#2934C7;}
	.st50{fill-rule:evenodd;clip-rule:evenodd;fill:#363DA5;}
	.st51{fill-rule:evenodd;clip-rule:evenodd;fill:#2130C4;}
	.st52{fill-rule:evenodd;clip-rule:evenodd;fill:#4346B7;}
	.st53{fill-rule:evenodd;clip-rule:evenodd;fill:#222EC7;}
	.st54{fill-rule:evenodd;clip-rule:evenodd;fill:#4345B6;}
	.st55{fill-rule:evenodd;clip-rule:evenodd;fill:#3F41B0;}
</style>
<g>
	<path class="st0" d="M10.5,3.5c5.1-0.8,9.5,0.5,13,4c1.3,4.2,3.3,8,6,11.5c-0.3,0.5-0.7,1-1,1.5c-1.5-2.1-3.5-3.1-6-3
		c0.5,2.5,1.5,4.9,3,7c-3.3-3-6.6-6-10-9c-1,5.3-1.3,10.6-1,16c-1,0.3-1.7,1-2,2c-1.1,2.5-1.3,5.1-0.5,8c0.7,0.9,1.5,1.5,2.5,2
		c0,0.3,0,0.7,0,1c-1.7,16.3-2.7,33-3,50c-2,0-4,0-6,0c-1.1-28-1.2-56-0.5-84C6.8,8.1,8.7,5.8,10.5,3.5z"/>
</g>
<g>
	<path class="st1" d="M23.5,7.5c5.7,5,11,10.3,16,16c-1,0.8-1.6,1.9-2,3.5c0.3,1.4,1,2.5,2,3.5c-0.8,1.9-1.8,3.5-3,5
		c-4-3.3-7.7-7-11-11c-1.5-2.1-2.5-4.5-3-7c2.5-0.1,4.5,0.9,6,3c0.3-0.5,0.7-1,1-1.5C26.8,15.5,24.8,11.7,23.5,7.5z"/>
</g>
<g>
	<path class="st2" d="M39.5,23.5c4.3,3.7,8.3,7.7,12,12c-6.4-3.5-8-2-5,4.5c-0.9,1.4-1.2,2.9-1,4.5c-3.3-2.7-6.3-5.7-9-9
		c1.2-1.5,2.2-3.1,3-5c-1-1-1.7-2.1-2-3.5C37.9,25.4,38.5,24.3,39.5,23.5z"/>
</g>
<g>
	<path class="st3" d="M12.5,33.5c6.7-1.3,9.3,1.3,8,8C13.5,43.2,10.8,40.5,12.5,33.5z"/>
</g>
<g>
	<path class="st4" d="M12.5,33.5c-1.7,7,1,9.7,8,8c-0.8,0.9-1.8,1.6-3,2c-1,0-2,0-3,0c-1-0.5-1.8-1.1-2.5-2
		C11.2,38.6,11.4,36,12.5,33.5z"/>
</g>
<g>
	<path class="st5" d="M14.5,31.5c7.7,0.3,9.7,3.6,6,10c1.3-6.7-1.3-9.3-8-8C12.8,32.5,13.5,31.8,14.5,31.5z"/>
</g>
<g>
	<path class="st6" d="M106.5,33.5c3.5-0.6,6.3,0.4,8.5,3c0.7,11.3,0.7,22.7,0,34c-2.2,2.8-5,3.6-8.5,2.5c-0.6-0.8-1.1-1.6-1.5-2.5
		c-0.7-11.7-0.7-23.3,0-35C105.7,35,106.2,34.3,106.5,33.5z"/>
</g>
<g>
	<path class="st7" d="M51.5,35.5c5.3,4.7,10.3,9.7,15,15c-2.2-0.9-4.2-2.2-6-4c-0.3,4.2-0.3,8.6,0,13c-5.3-4.7-10.3-9.7-15-15
		c-0.2-1.6,0.1-3.1,1-4.5C43.5,33.5,45.1,32,51.5,35.5z"/>
</g>
<g>
	<path class="st8" d="M23.5,44.5c6.3-0.4,10.3,2.5,12,8.5c-2.3,0.3-4.2,1.5-5.5,3.5c-4.7-2.1-6.9-5.8-6.5-11
		C23.5,45.2,23.5,44.8,23.5,44.5z"/>
</g>
<g>
	<path class="st9" d="M41.5,54.5c1.4,2.1,2.1,4.4,2,7c-2.7-0.3-5,0.3-7,2c-1.7-1.9-3.7-3.2-6-4c-5.2-3-8-7.3-8.5-13
		c0.4-0.6,0.9-0.9,1.5-1c-0.4,5.2,1.8,8.9,6.5,11c1.3-2,3.2-3.2,5.5-3.5c-1.7-6-5.7-8.9-12-8.5c2.4-2.4,5.1-2.6,8-0.5
		C35,47.4,38.4,50.9,41.5,54.5z"/>
</g>
<g>
	<path class="st10" d="M66.5,50.5c5,4.3,9.7,9,14,14c-1.8,0.3-3.5,0-5-1c-0.6-2-1.9-3-4-3c0,1.9,0.8,3.2,2.5,4c-0.3,3.6,1,6.3,4,8
		c0.8,1.9,1.3,3.9,1.5,6c-6.7-6-13-12.3-19-19c-0.3-4.4-0.3-8.8,0-13C62.3,48.3,64.3,49.6,66.5,50.5z"/>
</g>
<g>
	<path class="st11" d="M41.5,54.5c2.3,1.7,4.3,3.7,6,6c0.6,1.7,1.3,3.3,2,5c-1.9,2.2-2.3,4.5-1,7c-0.9,1.1-1.9,1.2-3,0.5
		c-1.6-2.1-3.6-3.6-6-4.5c-3.3-2.7-6.3-5.7-9-9c2.3,0.8,4.3,2.1,6,4c2-1.7,4.3-2.3,7-2C43.6,58.9,42.9,56.6,41.5,54.5z"/>
</g>
<path class="st12" d="M546.5,69.5c-9.8-26.3-28.8-37.8-57-34.5c-27.2,8.5-39,27-35.5,55.5c1.6,7.8,4.7,14.8,9.5,21
	c22.6,21.6,45.9,22.4,70,2.5c0.9-0.5,1.9-0.6,3-0.5c-0.2,4,0,8,0.5,12c2.5,2,5.3,2.5,8.5,1.5c0.7-1.1,1.2-2.2,1.5-3.5
	C547.8,105.5,547.6,87.5,546.5,69.5z M520.5,111c-20.6,11.1-37.8,7.3-51.5-11.5c-8.9-19.5-5.1-36,11.5-49.5c4.9-2.5,9.9-4.3,15-5.5
	c15.8-0.3,28,6,36.5,19C540.2,82.4,536.4,98.2,520.5,111z"/>
<g>
	<path class="st13" d="M47.5,60.5c6.1,3.2,7.5,7.7,4,13.5c-5.6,1.6-9.6-0.2-12-5.5c2.4,0.9,4.4,2.4,6,4.5c1.1,0.7,2.1,0.6,3-0.5
		c-1.3-2.5-0.9-4.8,1-7C48.8,63.8,48.1,62.2,47.5,60.5z"/>
</g>
<g>
	<path class="st14" d="M80.5,64.5c3,2.3,5.7,5,8,8c-1,0.1-1.8-0.2-2.5-1c-0.7,1.5-1.9,2.5-3.5,3c-0.9,0.8-1.2,1.8-1,3
		c1.6-0.2,2.9,0.3,4,1.5c-0.9,1.4-1.2,2.9-1,4.5c-2-1.3-3.7-3-5-5c-0.2-2.1-0.7-4.1-1.5-6c-3-1.7-4.3-4.4-4-8
		c-1.7-0.8-2.5-2.1-2.5-4c2.1,0,3.4,1,4,3C77,64.5,78.7,64.8,80.5,64.5z"/>
</g>
<g>
	<path class="st15" d="M88.5,72.5c3.3,2.7,6.3,5.7,9,9c-1.5,0-2.7-0.7-3.5-2c-1.4,0.9-2.9,1.2-4.5,1c2.4,3.6,4.2,7.6,5.5,12
		c3.1,1.9,5.9,3.9,8.5,6c0.7-2.8,1.7-5.5,3-8c0.3,0,0.7,0,1,0c1,0.3,1.7,1,2,2c-4.3,1.9-5.9,5.3-5,10c-7.3-5.6-13.9-11.9-20-19
		c-0.2-1.6,0.1-3.1,1-4.5c-1.1-1.2-2.4-1.7-4-1.5c-0.2-1.2,0.1-2.2,1-3c1.6-0.5,2.8-1.5,3.5-3C86.7,72.3,87.5,72.6,88.5,72.5z"/>
</g>
<g>
	<path class="st16" d="M415.5,46.5c-4.7-0.2-9.3,0-14,0.5c-8.9,5.2-14.7,12-17.5,20.5c-0.3,19.3-0.7,38.7-1,58
		c-2.2,2.6-4.7,3.2-7.5,2c2.5,0.1,4.5-0.9,6-3c0.5-21.4,1.4-42.7,2.5-64C390.9,47.4,401.4,42.8,415.5,46.5z"/>
</g>
<g>
	<path class="st17" d="M107.5,90.5c-0.3,0-0.7,0-1,0c-1-1.3-2-2.7-3-4c0.8-2.2,1.4-4.5,2-7c3.4-1.4,6.5-1.1,9.5,1
		C116.8,87.2,114.3,90.5,107.5,90.5z"/>
</g>
<g>
	<path class="st18" d="M60.5,78.5c4.9-0.7,7.9,1.3,9,6c-3,6.8-6.9,7.4-11.5,2C57,83.2,57.9,80.6,60.5,78.5z"/>
</g>
<g>
	<path class="st19" d="M97.5,81.5c2,1.7,4,3.3,6,5c1,1.3,2,2.7,3,4c-1.3,2.5-2.3,5.2-3,8c-2.6-2.1-5.4-4.1-8.5-6
		c-1.3-4.4-3.1-8.4-5.5-12c1.6,0.2,3.1-0.1,4.5-1C94.8,80.8,96,81.5,97.5,81.5z"/>
</g>
<path class="st20" d="M217,63.5c-14.1-26.9-35.6-35.4-64.5-25.5c-26.9,16.1-33.7,38.6-20.5,67.5c2.7,3.5,5.5,6.8,8.5,10
	c11.6,10.8,25.3,14.7,41,11.5c4.5-0.7,8.8-1.9,13-3.5C216.8,109.3,224.3,89.3,217,63.5z M184.5,115c-22,6-37.5-1.5-46.5-22.5
	c-4.6-25.1,5.2-41.1,29.5-48c18.6-0.8,31.8,7.2,39.5,24C212.4,90.4,204.9,105.9,184.5,115z"/>
<g>
	<path class="st20" d="M287.5,121.5c-23.2,11.8-43.9,8.4-62-10c-1.7-7.4,0.9-9.9,8-7.5c5.1,6,11.4,10,19,12
		c12.8,2.9,23.9,0.1,33.5-8.5c3.4-4.4,3.2-8.6-0.5-12.5c-17.3-6-34.7-12-52-18c-8.4-6.7-10.9-15.2-7.5-25.5
		c3.9-5.5,8.7-10,14.5-13.5c21.9-8.2,41-4.1,57.5,12.5c1.3,6.3-1.2,9.2-7.5,8.5c-2.3-2.3-4.7-4.7-7-7c-17.1-11.3-33-9.8-47.5,4.5
		c-1.4,4.8-0.3,8.6,3.5,11.5c16,5.3,32,10.7,48,16c5.2,2.5,9,6.3,11.5,11.5C300.7,106.7,296.8,115.4,287.5,121.5z"/>
</g>
<g>
	<path class="st21" d="M10.5,3.5c-1.8,2.3-3.7,4.6-5.5,7c-0.7,28-0.6,56,0.5,84c2,0,4,0,6,0c0.3-17,1.3-33.7,3-50
		c0.2,16.3,0,32.7-0.5,49c-2.6,4.3-6,4.9-10,2c-0.7-28.7-0.7-57.3,0-86C5.1,6.3,7.3,4.3,10.5,3.5z"/>
</g>
<g>
	<path class="st22" d="M72.5,89.5c5.8-0.4,8.3,2.3,7.5,8c-3.7,5.3-7.3,5.3-11,0C68.3,93.9,69.4,91.3,72.5,89.5z"/>
</g>
<g>
	<path class="st23" d="M109.5,92.5c6.2,2.4,7.5,6.4,4,12c-3.6,1.7-6.6,1-9-2C103.6,97.8,105.2,94.4,109.5,92.5z"/>
</g>
<g>
	<path class="st24" d="M437.5,127.5c-1.9-0.1-3.1-1.1-3.5-3c-0.3-20.3-0.7-40.7-1-61c-3.1-8.6-8.9-14.3-17.5-17
		c-14.1-3.7-24.6,0.9-31.5,14c-1.1,21.3-2,42.6-2.5,64c-1.5,2.1-3.5,3.1-6,3c-1.6-0.4-2.7-1.4-3.5-3c-0.3-20.3-0.7-40.7-1-61
		c-3.1-8.1-8.6-13.9-16.5-17.5c-16.3-3.7-27.6,2.1-34,17.5c-1,20.7-1.3,41.3-1,62c-1.7,0.9-3.5,1.6-5.5,2c-2.6,0.4-4.2-0.6-5-3
		c-1-29.8-0.6-59.4,1-89c7.3-2.6,10.8,0.1,10.5,8c13.6-11.5,28.3-13,44-4.5c4.2,3.5,8.3,7,12.5,10.5c11.8-14.2,26.7-18.7,44.5-13.5
		c10.7,4.7,17.8,12.5,21.5,23.5c1.6,21.9,2,43.9,1,66C442.2,127.2,440,127.9,437.5,127.5z"/>
</g>
<g>
	<path class="st25" d="M94.5,107.5c-1.5,3.8-2.5,7.8-3,12c-5.4-3-9.4-7.4-12-13c1.5-5.6,4.8-7.1,10-4.5
		C91.4,103.7,93,105.5,94.5,107.5z"/>
</g>
<g>
	<path class="st26" d="M625.5,43.5c-17.1,40.9-34.3,81.9-51.5,123c-4.9,3.3-8,2.2-9.5-3.5c3.9-10.9,7.9-21.8,12-32.5
		c0.9-2.1,2-4.1,3.5-6c0.7-1.3,0.7-2.7,0-4c-11-26.4-22-52.7-33-79c-0.7-1.7-0.7-3.3,0-5c3.3-4,6.7-4,10,0c6.6,15.6,12.9,31.2,19,47
		c3.6,7.3,7.1,14.7,10.5,22c1.3-0.6,2.1-1.6,2.5-3c8.2-22.1,17.2-43.7,27-65c0.9-1.8,2.4-2.8,4.5-3C626.4,35,628,38,625.5,43.5z"/>
</g>
<g>
	<path class="st27" d="M94.5,107.5c2.8,2.3,5.5,4.8,8,7.5c3,0.3,6,0.7,9,1c3.3,4.8,2.3,8.4-3,11c-7.4,1.4-13.1-1.1-17-7.5
		C92,115.3,93,111.3,94.5,107.5z"/>
</g>
<g>
	<path class="st28" d="M467.5,157.5c4.7-0.5,6,1.3,4,5.5C466.7,163.8,465.4,162,467.5,157.5z"/>
</g>
<g>
	<path class="st29" d="M312.5,153.5c-1.3-0.2-2.5,0.2-3.5,1c-0.2,4.9-0.7,9.5-1.5,14c-0.2-5,0-10,0.5-15
		C309.6,152.2,311.1,152.2,312.5,153.5z"/>
</g>
<g>
	<path class="st30" d="M484.5,169.5c4.1-1.1,8.5-1.3,13-0.5c2.2,1.3,4.2,2.8,6,4.5c-2.8-0.9-5.4-2-8-3.5
		C491.8,169.5,488.2,169.3,484.5,169.5z"/>
</g>
<g>
	<path class="st31" d="M459.5,169.5c3.8,0.2,4.8,1.8,3,5c-3.6-0.6-7.3-0.9-11-1c-7.2-0.3-7.5-1.4-1-3.5
		C453.5,169.5,456.5,169.3,459.5,169.5z"/>
</g>
<g>
	<path class="st32" d="M312.5,153.5c1,4.8,1.3,9.8,1,15c9.5,2.1,9.2,3.5-1,4c-0.6,8.7,0,17.1,2,25c0.7,0.3,1.3,0.7,2,1
		c-0.1,1,0.2,1.8,1,2.5c1.8,0.2,3.4,0.7,5,1.5c-3.9,1.4-7.6,1.1-11-1c-1.9-1.5-3.1-3.5-3.5-6c-0.5-7.3-0.7-14.7-0.5-22
		c-0.7-1.2-1.7-2.2-3-3c1.1-0.7,2.1-1.3,3-2c0.8-4.5,1.3-9.1,1.5-14C310,153.7,311.2,153.3,312.5,153.5z"/>
</g>
<g>
	<path class="st33" d="M307.5,168.5c-0.9,0.7-1.9,1.3-3,2c1.3,0.8,2.3,1.8,3,3c-4.2,0.7-5.5-0.8-4-4.5
		C304.8,168.5,306.1,168.3,307.5,168.5z"/>
</g>
<g>
	<path class="st34" d="M390.5,169.5c-3-0.2-6,0-9,0.5c-2.8,1.7-5.8,2.9-9,3.5c0-1,0-2,0-3c-1.3-0.2-2.5,0.2-3.5,1
		c-0.5,10.7-0.7,21.3-0.5,32c1,0,2,0,3,0c0.6-6.8,1.2-13.5,2-20c0.2,6.7,0,13.3-0.5,20c-1.4,2-3.1,2.4-5,1c-0.7-11.7-0.7-23.3,0-35
		c3.4-1.8,5.4-0.8,6,3C379,168.5,384.5,167.5,390.5,169.5z"/>
</g>
<g>
	<path class="st35" d="M441.5,171.5c-1.2-0.7-2.5-1.1-4-1c0,11,0,22,0,33c1,0,2,0,3,0c-0.2-8.7,0.1-17.4,1-26c1,0,2,0,3,0
		c0-1,0-2,0-3c-1.7,0.2-2.7-0.5-3-2c2.3-1.1,4.6-2.3,7-3.5c3.9-0.8,7.5-0.6,11,0.5c-3-0.2-6,0-9,0.5c-6.5,2.1-6.2,3.2,1,3.5
		c0,0.3,0,0.7,0,1c-3.5,1-6.3,3-8.5,6c-1.2,7.9-1.9,15.9-2,24c-1.3,1.3-2.7,1.3-4,0c-0.7-11.7-0.7-23.3,0-35
		C439.5,167.9,441,168.6,441.5,171.5z"/>
</g>
<g>
	<path class="st36" d="M416.5,173.5c9.5,4.3,12,11.3,7.5,21c-5,5.4-10.9,6.4-17.5,3c-7.8-7.2-7.8-14.4,0-21.5
		C409.5,174,412.9,173.2,416.5,173.5z"/>
</g>
<g>
	<path class="st37" d="M482.5,169.5c0.7,0,1.3,0,2,0c3.7-0.2,7.3,0,11,0.5c2.6,1.5,5.2,2.6,8,3.5c0.4,3.7-1,4.7-4,3
		c-6.1-4.3-11.9-4-17.5,1c-0.5,0.9-0.6,1.9-0.5,3c1.1,1.9,2.8,3.4,5,4.5c-2,0.5-4,0.7-6,0.5c-1.9-0.1-3.1-1.1-3.5-3
		c-0.7-2.7-0.7-5.3,0-8C478.7,172.6,480.6,170.9,482.5,169.5z"/>
</g>
<g>
	<path class="st38" d="M503.5,173.5c2.1,1.4,2.5,3.3,1,5.5c-2.4,0.7-4.1-0.1-5-2.5C502.5,178.2,503.9,177.2,503.5,173.5z"/>
</g>
<g>
	<path class="st39" d="M313.5,168.5c2.4-0.2,4.7,0,7,0.5c1.3,1.3,1.3,2.7,0,4c-2.3,0.5-4.6,0.7-7,0.5c-0.3,8.1,0.1,16.1,1,24
		c-2-7.9-2.6-16.3-2-25C322.7,172,323,170.6,313.5,168.5z"/>
</g>
<g>
	<path class="st40" d="M467.5,168.5c1.6-0.2,3.1,0.1,4.5,1c0.7,11.3,0.7,22.7,0,34c-0.5,1-1.4,1.7-2.5,2c-2.4-0.2-3.4-1.6-3-4
		C466.2,190.4,466.5,179.4,467.5,168.5z"/>
</g>
<g>
	<path class="st41" d="M468.5,170.5c1.3,5,2,10.3,2,16c-0.3,5.3-0.7,10.7-1,16C468.5,191.9,468.2,181.2,468.5,170.5z"/>
</g>
<g>
	<path class="st42" d="M390.5,169.5c3.4-0.1,4.7,1.6,4,5c-9.9-3.2-16.9-0.2-21,9c-0.8,6.5-1.4,13.2-2,20c-1,0-2,0-3,0
		c-0.2-10.7,0-21.3,0.5-32c1-0.8,2.2-1.2,3.5-1c0,1,0,2,0,3c3.2-0.6,6.2-1.8,9-3.5C384.5,169.5,387.5,169.3,390.5,169.5z"/>
</g>
<g>
	<path class="st43" d="M481.5,180.5c5.4,2,10.8,4,16,6c7.2,1,9.7,5,7.5,12c-0.7,0.9-1.5,1.5-2.5,2c0.6-2,1.3-4,2-6
		c-0.2-3.1-1.5-4.1-4-3c1.5,1,2,2.4,1.5,4c-0.3-0.9-0.8-1.6-1.5-2c-6.8-2.5-13.4-5.1-20-8c2,0.2,4,0,6-0.5
		C484.3,183.9,482.6,182.4,481.5,180.5z"/>
</g>
<g>
	<path class="st44" d="M497.5,186.5c1.3,1,2,2.3,2,4c-4.5-0.2-8.5-1.7-12-4.5C490.9,185.5,494.2,185.6,497.5,186.5z"/>
</g>
<g>
	<path class="st45" d="M441.5,171.5c0,0.3,0,0.7,0,1c0.3,1.5,1.3,2.2,3,2c0,1,0,2,0,3c-1,0-2,0-3,0c-0.9,8.6-1.2,17.3-1,26
		c-1,0-2,0-3,0c0-11,0-22,0-33C439,170.4,440.3,170.8,441.5,171.5z"/>
</g>
<g>
	<path class="st46" d="M423.5,171.5c-12.3-4.4-21.1-0.8-26.5,11c-0.2,6-0.3,12-0.5,18c-0.1,6.5,0.4,12.8,1.5,19
		c1.5-6.5,2-13.2,1.5-20c2-0.3,3.3,0.3,4,2c-1,0.1-1.8-0.2-2.5-1c-0.5,6.7-0.7,13.3-0.5,20c-1.7,0-3.3,0-5,0
		c-0.2-13.3,0-26.7,0.5-40C402.3,168.2,411.5,165.2,423.5,171.5z"/>
</g>
<g>
	<path class="st47" d="M423.5,171.5c0.1,1.5-0.6,2.5-2,3c-1.6-0.8-3.2-1.1-5-1c-3.6-0.3-7,0.5-10,2.5c-7.8,7.1-7.8,14.3,0,21.5
		c0,1.1,0.4,2.1,1,3c3.7,1.3,7.3,1.3,11,0c1,0.5,1.2,1.2,0.5,2c-5.3,1.4-10.4,1.1-15.5-1c-0.7-1.7-2-2.3-4-2c0.5,6.8,0,13.5-1.5,20
		c-1.1-6.2-1.6-12.5-1.5-19c0.2-6,0.3-12,0.5-18C402.4,170.7,411.2,167.1,423.5,171.5z"/>
</g>
<g>
	<path class="st48" d="M423.5,171.5c4.4,1.9,7.2,5.2,8.5,10c1.7,11.8-3.2,19.7-14.5,23.5c-5.4,1.3-10.1,0.1-14-3.5
		c5.1,2.1,10.2,2.4,15.5,1c0.7-0.8,0.5-1.5-0.5-2c-3.7,1.3-7.3,1.3-11,0c-0.6-0.9-1-1.9-1-3c6.6,3.4,12.5,2.4,17.5-3
		c4.5-9.7,2-16.7-7.5-21c1.8-0.1,3.4,0.2,5,1C422.9,174,423.6,173,423.5,171.5z"/>
</g>
<path class="st49" d="M300,181.5c-0.5-1.7-1.1-3.4-2-5c-7.6-8.5-16.4-10.2-26.5-5c-0.9-3-2.7-3.7-5.5-2c-0.8,11.5-0.7,22.8,0.5,34
	c1.4,2.6,2.9,2.6,4.5,0c0.3-7.7,0.7-15.3,1-23c1-0.7,1.5-1.7,1.5-3c2.4-0.9,4.4-2.2,6-4c3.5,0,6.8,0.7,10,2c2.1,2.1,3.7,4.4,5,7
	c-0.2,7.3,0,14.7,0.5,22c1.9,1.4,3.4,1.1,4.5-1C300.7,196.3,300.8,189,300,181.5z"/>
<g>
	<path class="st50" d="M496.5,198.5c-0.1,0.6-0.4,1.1-1,1.5c-5.9,1.4-11.3,0.2-16-3.5c-0.8,1.2-0.8,2.5,0,4c-1-0.7-2-1.3-3-2
		c0-1.3,0-2.7,0-4c1.4-0.2,2.7,0,4,0.5C485.1,199.4,490.4,200.6,496.5,198.5z"/>
</g>
<g>
	<path class="st51" d="M502.5,200.5c0,0.7-0.3,1-1,1c-3.2,0.5-6.3,1.2-9.5,2c-3.9-0.3-7.7-1-11.5-2c-0.7,0-1-0.3-1-1
		c-0.8-1.5-0.8-2.8,0-4c4.7,3.7,10.1,4.9,16,3.5c0.6-0.4,0.9-0.9,1-1.5c2.1-1.1,3.4-2.8,4-5c0.7,0.4,1.2,1.1,1.5,2
		c0.5-1.6,0-3-1.5-4c2.5-1.1,3.8-0.1,4,3C503.8,196.5,503.1,198.5,502.5,200.5z"/>
</g>
<path class="st52" d="M230.5,199.5c0-6,0-12,0-18c7.3,0.2,14.7,0,22-0.5c1.3-1.7,1.3-3.3,0-5c-7.3-0.5-14.7-0.7-22-0.5
	c0-5.7,0-11.3,0-17c10,0.2,20,0,30-0.5c1.3-1.7,1.3-3.3,0-5c-11.8-0.8-23.5-0.7-35,0.5c-1.2,16.5-1.3,33.2-0.5,50
	c0.5,0.5,1,1,1.5,1.5c11.3,0.7,22.7,0.7,34,0c1.3-1.7,1.3-3.3,0-5C250.5,199.5,240.5,199.3,230.5,199.5z"/>
<path class="st53" d="M545,188.5c0.8-9.7-3.3-16-12.5-19c-1.8-0.7-3.8-1-6-1c-3-0.2-5.7,0.5-8,2c-2.6,1-4.7,2.7-6.5,5
	c-4.7,7.6-4.6,14.9,0.5,22c0.3,1,1,1.7,2,2c1.2,2,2.8,3.5,5,4.5c7.2,2.6,13.7,1.5,19.5-3.5c1-2.4,0.3-4.1-2-5
	c-2.1,1.6-4.3,2.9-6.5,4c-2.7,0-5.3,0-8,0c-2.3-2-4.6-4-7-6c-0.3-1.3-0.7-2.7-1-4C524.7,189.8,534.9,189.5,545,188.5z M519.5,176
	c9.3-4.5,16-2,20,7.5c-8.3,0-16.7,0-25,0C515.1,180.4,516.8,177.9,519.5,176z"/>
<g>
	<path class="st54" d="M480.5,201.5c3.8,1,7.6,1.7,11.5,2c3.2-0.8,6.3-1.5,9.5-2c-2.8,2.8-6.3,4.1-10.5,4
		C486.8,205.6,483.3,204.3,480.5,201.5z"/>
</g>
<g>
	<path class="st55" d="M316.5,198.5c2.2,0.6,4.3,1.3,6.5,2c0.7,1.6,0.6,3.1-0.5,4.5c-4.5,1.1-8.2-0.1-11-3.5c3.4,2.1,7.1,2.4,11,1
		c-1.6-0.8-3.2-1.3-5-1.5C316.7,200.3,316.4,199.5,316.5,198.5z"/>
</g>
<path class="st53" d="M363.2,188.7c0.8-9.7-3.3-16-12.5-19c-1.8-0.7-3.8-1-6-1c-3-0.2-5.7,0.5-8,2c-2.6,1-4.7,2.7-6.5,5
	c-4.7,7.6-4.6,14.9,0.5,22c0.3,1,1,1.7,2,2c1.2,2,2.8,3.5,5,4.5c7.2,2.6,13.7,1.5,19.5-3.5c1-2.4,0.3-4.1-2-5
	c-2.1,1.6-4.3,2.9-6.5,4c-2.7,0-5.3,0-8,0c-2.3-2-4.6-4-7-6c-0.3-1.3-0.7-2.7-1-4C342.9,190,353.1,189.7,363.2,188.7z M337.7,176.2
	c9.3-4.5,16-2,20,7.5c-8.3,0-16.7,0-25,0C333.3,180.6,335,178.1,337.7,176.2z"/>
</svg>
