<?xml version="1.0" encoding="UTF-8"?>
<!DOCTYPE svg PUBLIC "-//W3C//DTD SVG 1.1//EN" "http://www.w3.org/Graphics/SVG/1.1/DTD/svg11.dtd">
<svg xmlns="http://www.w3.org/2000/svg" version="1.1" width="626px" height="219px" style="shape-rendering:geometricPrecision; text-rendering:geometricPrecision; image-rendering:optimizeQuality; fill-rule:evenodd; clip-rule:evenodd" xmlns:xlink="http://www.w3.org/1999/xlink">
<g><path style="opacity:0.946" fill="#24a9e0" d="M 7.5,-0.5 C 9.83333,-0.5 12.1667,-0.5 14.5,-0.5C 16.8102,0.324982 18.8102,1.65832 20.5,3.5C 20.5,9.16667 20.5,14.8333 20.5,20.5C 17.5361,18.0381 14.7028,15.3714 12,12.5C 11.5006,17.8229 11.334,23.1563 11.5,28.5C 6.20355,32.4032 6.20355,36.4032 11.5,40.5C 11.6666,57.8365 11.4999,75.1699 11,92.5C 6.85557,95.3112 3.02224,94.9778 -0.5,91.5C -0.5,64.1667 -0.5,36.8333 -0.5,9.5C 0.748471,4.98836 3.41514,1.65503 7.5,-0.5 Z"/></g>
<g><path style="opacity:0.91" fill="#249ad5" d="M 20.5,3.5 C 24.1667,6.5 27.5,9.83333 30.5,13.5C 30.5,19.1667 30.5,24.8333 30.5,30.5C 26.8333,27.5 23.5,24.1667 20.5,20.5C 20.5,14.8333 20.5,9.16667 20.5,3.5 Z"/></g>
<g><path style="opacity:0.883" fill="#268ecc" d="M 30.5,13.5 C 34.1667,16.5 37.5,19.8333 40.5,23.5C 39.5119,28.6405 39.1786,33.9738 39.5,39.5C 36.1667,36.8333 33.1667,33.8333 30.5,30.5C 30.5,24.8333 30.5,19.1667 30.5,13.5 Z"/></g>
<g><path style="opacity:0.908" fill="#284296" d="M 11.5,28.5 C 16.4352,27.6229 19.1018,29.6229 19.5,34.5C 18.8628,39.1313 16.1961,41.1313 11.5,40.5C 6.20355,36.4032 6.20355,32.4032 11.5,28.5 Z"/></g>
<g><path style="opacity:0.877" fill="#25aae1" d="M 105.5,29.5 C 109.09,29.5441 111.59,31.2108 113,34.5C 113.667,45.1667 113.667,55.8333 113,66.5C 111.713,70.7287 108.88,72.2287 104.5,71C 102.951,69.786 101.785,68.286 101,66.5C 100.333,55.8333 100.333,45.1667 101,34.5C 102.025,32.313 103.525,30.6464 105.5,29.5 Z"/></g>
<g><path style="opacity:0.918" fill="#00aeef" d="M 163.5,30.5 C 188.564,29.2769 205.731,40.2769 215,63.5C 220.967,87.7279 213.467,106.561 192.5,120C 167.647,130.669 146.813,125.502 130,104.5C 116.452,78.572 120.952,56.4053 143.5,38C 149.885,34.3765 156.552,31.8765 163.5,30.5 Z M 161.5,42.5 C 190.981,41.149 205.481,55.149 205,84.5C 198.749,106.386 184.249,115.886 161.5,113C 140.211,105.59 131.378,90.7564 135,68.5C 139.776,55.5564 148.609,46.8898 161.5,42.5 Z"/></g>
<g><path style="opacity:0.913" fill="#00aeef" d="M 252.5,30.5 C 271.031,29.105 285.698,35.7717 296.5,50.5C 295.655,55.8439 292.655,57.6773 287.5,56C 272.635,40.7794 255.969,38.4461 237.5,49C 231.991,53.5096 231.324,58.5096 235.5,64C 250.363,69.3989 265.363,74.3989 280.5,79C 294.457,83.747 299.291,93.247 295,107.5C 286.146,119.594 274.146,125.594 259,125.5C 244.146,125.238 231.813,119.572 222,108.5C 220.5,101.333 223.333,98.5 230.5,100C 243.047,114.06 258.047,117.394 275.5,110C 280.345,107.164 283.679,103.164 285.5,98C 284.896,95.5325 283.562,93.5325 281.5,92C 263.681,86.0606 246.015,79.7273 228.5,73C 221.908,66.8942 219.742,59.3942 222,50.5C 225.167,43.3333 230.333,38.1667 237.5,35C 242.482,33.0104 247.482,31.5104 252.5,30.5 Z"/></g>
<g><path style="opacity:0.925" fill="#00aeef" d="M 309.5,30.5 C 315.357,30.4979 318.357,33.4979 318.5,39.5C 338.915,25.7187 357.248,28.0521 373.5,46.5C 388.667,29.3666 406.333,26.2 426.5,37C 433.71,42.5938 438.543,49.7604 441,58.5C 441.667,80.1667 441.667,101.833 441,123.5C 437.304,126.425 433.971,126.092 431,122.5C 430.667,102.5 430.333,82.5 430,62.5C 422.966,43.7377 410.133,38.2377 391.5,46C 385.292,50.2443 381.458,56.0776 380,63.5C 379.667,83.1667 379.333,102.833 379,122.5C 376.321,125.835 373.155,126.335 369.5,124C 368.948,102.864 368.115,81.6974 367,60.5C 358.642,42.269 345.476,37.769 327.5,47C 323.509,49.9889 320.676,53.8222 319,58.5C 317.7,79.436 317.034,100.436 317,121.5C 313.74,126.285 310.073,126.619 306,122.5C 305.333,92.8333 305.333,63.1667 306,33.5C 307.145,32.3636 308.312,31.3636 309.5,30.5 Z"/></g>
<g><path style="opacity:0.914" fill="#00aeef" d="M 491.5,30.5 C 511.532,29.2665 527.032,36.9331 538,53.5C 540.994,58.8157 542.994,64.4824 544,70.5C 544.667,87.8333 544.667,105.167 544,122.5C 541.029,126.092 537.696,126.425 534,123.5C 532.874,119.251 532.208,114.918 532,110.5C 510.126,129.492 487.626,130.325 464.5,113C 449.432,96.7668 445.932,78.2668 454,57.5C 461.937,42.0503 474.437,33.0503 491.5,30.5 Z M 489.5,42.5 C 510.84,40.3588 525.007,49.3588 532,69.5C 535.115,91.3663 526.282,105.866 505.5,113C 483.349,115.845 468.849,106.679 462,85.5C 459.733,63.6412 468.9,49.3079 489.5,42.5 Z"/></g>
<g><path style="opacity:0.916" fill="#00aeef" d="M 546.5,30.5 C 549.652,29.9586 552.152,30.9586 554,33.5C 563.619,57.0316 573.619,80.3649 584,103.5C 593.667,80.1667 603.333,56.8333 613,33.5C 618.253,28.9845 622.086,29.9845 624.5,36.5C 607.236,77.7928 590.069,119.126 573,160.5C 570.512,165.798 566.845,166.798 562,163.5C 561.333,161.167 561.333,158.833 562,156.5C 566.781,144.153 571.948,131.986 577.5,120C 566.48,93.4575 555.313,66.9575 544,40.5C 542.863,36.5369 543.697,33.2036 546.5,30.5 Z"/></g>
<g><path style="opacity:0.867" fill="#237ec0" d="M 40.5,23.5 C 45.1667,27.5 49.5,31.8333 53.5,36.5C 53.5,42.1667 53.5,47.8333 53.5,53.5C 48.5,49.1667 43.8333,44.5 39.5,39.5C 39.1786,33.9738 39.5119,28.6405 40.5,23.5 Z"/></g>
<g><path style="opacity:0.927" fill="#24519f" d="M 33.5,45.5 C 32.5509,50.7401 32.2175,56.0735 32.5,61.5C 26.6957,57.0377 22.029,51.7044 18.5,45.5C 20.0814,39.4327 23.7481,37.9327 29.5,41C 31.0414,42.3712 32.3747,43.8712 33.5,45.5 Z"/></g>
<g><path style="opacity:0.924" fill="#2070b4" d="M 53.5,36.5 C 58.1667,40.5 62.5,44.8333 66.5,49.5C 66.8214,55.0262 66.4881,60.3595 65.5,65.5C 61.1667,61.8333 57.1667,57.8333 53.5,53.5C 53.5,47.8333 53.5,42.1667 53.5,36.5 Z"/></g>
<g><path style="opacity:0.917" fill="#255ea8" d="M 33.5,45.5 C 37.1667,48.5 40.5,51.8333 43.5,55.5C 42.5509,60.7401 42.2175,66.0735 42.5,71.5C 38.8333,68.5 35.5,65.1667 32.5,61.5C 32.2175,56.0735 32.5509,50.7401 33.5,45.5 Z"/></g>
<g><path style="opacity:0.943" fill="#2562ab" d="M 66.5,49.5 C 70.8333,53.1667 74.8333,57.1667 78.5,61.5C 77.5119,66.6405 77.1786,71.9738 77.5,77.5C 73.1667,73.8333 69.1667,69.8333 65.5,65.5C 66.4881,60.3595 66.8214,55.0262 66.5,49.5 Z"/></g>
<g><path style="opacity:0.789" fill="#2568ae" d="M 43.5,55.5 C 47.5083,58.0045 50.1749,61.5045 51.5,66C 50.6277,71.4329 47.6277,73.2662 42.5,71.5C 42.2175,66.0735 42.5509,60.7401 43.5,55.5 Z"/></g>
<g><path style="opacity:0.891" fill="#2356a2" d="M 78.5,61.5 C 82.1667,64.5 85.5,67.8333 88.5,71.5C 88.5,77.1667 88.5,82.8333 88.5,88.5C 84.5,85.1667 80.8333,81.5 77.5,77.5C 77.1786,71.9738 77.5119,66.6405 78.5,61.5 Z"/></g>
<g><path style="opacity:0.922" fill="#274e9d" d="M 88.5,71.5 C 90.8333,73.1667 92.8333,75.1667 94.5,77.5C 94.5,83.1667 94.5,88.8333 94.5,94.5C 92.1667,92.8333 90.1667,90.8333 88.5,88.5C 88.5,82.8333 88.5,77.1667 88.5,71.5 Z"/></g>
<g><path style="opacity:0.85" fill="#25aae1" d="M 104.5,86.5 C 103.167,85.8333 102.167,84.8333 101.5,83.5C 101.5,82.8333 101.167,82.5 100.5,82.5C 101.172,75.1662 104.838,72.9995 111.5,76C 114.815,83.1957 112.482,86.6957 104.5,86.5 Z"/></g>
<g><path style="opacity:0.917" fill="#1f79bb" d="M 56.5,75.5 C 65.6465,74.4552 68.3131,77.9552 64.5,86C 55.0687,88.0504 52.402,84.5504 56.5,75.5 Z"/></g>
<g><path style="opacity:0.913" fill="#274598" d="M 94.5,77.5 C 96.5,79.1667 98.5,80.8333 100.5,82.5C 101.167,82.5 101.5,82.8333 101.5,83.5C 102.167,84.8333 103.167,85.8333 104.5,86.5C 105.5,87.8333 106.5,89.1667 107.5,90.5C 102.063,91.5477 100.063,94.8811 101.5,100.5C 98.5526,99.2195 96.2193,97.2195 94.5,94.5C 94.5,88.8333 94.5,83.1667 94.5,77.5 Z"/></g>
<g><path style="opacity:0.932" fill="#2885c5" d="M 68.5,86.5 C 75.6647,85.4966 78.498,88.4966 77,95.5C 73.3333,99.5 69.6667,99.5 66,95.5C 64.9302,91.8579 65.7636,88.8579 68.5,86.5 Z"/></g>
<g><path style="opacity:0.882" fill="#25a7df" d="M 107.5,90.5 C 113.063,91.9613 114.563,95.2947 112,100.5C 108.502,103.12 105.002,103.12 101.5,100.5C 100.063,94.8811 102.063,91.5477 107.5,90.5 Z"/></g>
<g><path style="opacity:0.929" fill="#2496d2" d="M 89.5,101.5 C 88.5119,106.64 88.1786,111.974 88.5,117.5C 83.3567,113.699 79.3567,109.033 76.5,103.5C 78.0814,97.4327 81.7481,95.9327 87.5,99C 88.3805,99.7083 89.0472,100.542 89.5,101.5 Z"/></g>
<g><path style="opacity:0.88" fill="#24a7df" d="M 89.5,101.5 C 93.2976,104.796 96.9643,108.296 100.5,112C 103.098,111.578 105.764,111.578 108.5,112C 113.058,119.717 110.724,124.217 101.5,125.5C 95.7157,125.112 91.3824,122.445 88.5,117.5C 88.1786,111.974 88.5119,106.64 89.5,101.5 Z"/></g>
<g><path style="opacity:0.907" fill="#283791" d="M 222.5,149.5 C 234.518,149.168 246.518,149.501 258.5,150.5C 259.859,152.306 259.525,153.806 257.5,155C 247.506,155.5 237.506,155.666 227.5,155.5C 227.5,161.167 227.5,166.833 227.5,172.5C 234.841,172.334 242.174,172.5 249.5,173C 251.527,174.396 251.86,176.062 250.5,178C 242.841,178.5 235.174,178.666 227.5,178.5C 227.5,184.5 227.5,190.5 227.5,196.5C 237.855,196.168 248.188,196.501 258.5,197.5C 259.833,198.833 259.833,200.167 258.5,201.5C 246.271,202.821 234.104,202.821 222,201.5C 221.182,184.093 221.348,166.76 222.5,149.5 Z"/></g>
<g><path style="opacity:0.868" fill="#283791" d="M 305.5,149.5 C 307.167,149.5 308.833,149.5 310.5,149.5C 310.5,154.5 310.5,159.5 310.5,164.5C 312.527,164.338 314.527,164.505 316.5,165C 319.167,167 319.167,169 316.5,171C 314.527,171.495 312.527,171.662 310.5,171.5C 310.109,178.921 310.609,186.254 312,193.5C 314.344,195.774 317.178,196.941 320.5,197C 322.494,201.137 321.16,202.97 316.5,202.5C 311.843,202.424 308.343,200.424 306,196.5C 304.594,188.251 304.094,179.917 304.5,171.5C 300.212,171.442 298.879,169.442 300.5,165.5C 301.736,164.754 303.07,164.421 304.5,164.5C 304.221,159.405 304.555,154.405 305.5,149.5 Z"/></g>
<g><path style="opacity:0.714" fill="#283791" d="M 464.5,153.5 C 470.488,153.664 471.821,156.164 468.5,161C 462.403,161.147 461.07,158.647 464.5,153.5 Z"/></g>
<g><path style="opacity:0.878" fill="#283791" d="M 264.5,164.5 C 267.068,164.594 268.568,165.928 269,168.5C 278.124,162.723 286.457,163.723 294,171.5C 295.439,173.275 296.439,175.275 297,177.5C 297.815,185.746 297.648,193.912 296.5,202C 294.888,202.72 293.388,202.554 292,201.5C 291.902,193.423 291.235,185.423 290,177.5C 286.565,172.206 281.732,170.373 275.5,172C 272.272,173.563 270.105,176.063 269,179.5C 268.667,186.833 268.333,194.167 268,201.5C 266.333,202.833 264.667,202.833 263,201.5C 262.833,195.5 262.667,189.5 262.5,183.5C 262.542,176.927 263.208,170.594 264.5,164.5 Z"/></g>
<g><path style="opacity:0.874" fill="#283791" d="M 337.5,164.5 C 348.086,164.036 355.252,168.703 359,178.5C 359.769,181.099 359.602,183.599 358.5,186C 348.483,186.168 338.483,186.668 328.5,187.5C 331.46,193.979 336.46,196.812 343.5,196C 346.267,194.107 349.267,193.107 352.5,193C 353.576,194.726 353.743,196.559 353,198.5C 337.92,206.476 327.586,202.476 322,186.5C 321.168,174.846 326.335,167.512 337.5,164.5 Z M 336.5,171.5 C 344.025,169.929 349.358,172.596 352.5,179.5C 344.521,180.665 336.521,180.832 328.5,180C 330.021,175.982 332.687,173.149 336.5,171.5 Z"/></g>
<g><path style="opacity:0.875" fill="#283791" d="M 365.5,164.5 C 368.272,164.595 370.272,165.929 371.5,168.5C 377.423,164.616 383.756,163.783 390.5,166C 393.409,168.839 393.075,171.006 389.5,172.5C 382.39,169.965 376.557,171.632 372,177.5C 370.765,185.423 370.098,193.423 370,201.5C 368.333,202.833 366.667,202.833 365,201.5C 364.188,189.091 364.355,176.758 365.5,164.5 Z"/></g>
<g><path style="opacity:0.84" fill="#283791" d="M 396.5,218.5 C 395.5,218.5 394.5,218.5 393.5,218.5C 393.217,217.711 392.717,217.044 392,216.5C 391.097,203.119 391.43,189.786 393,176.5C 399.792,164.759 409.292,161.925 421.5,168C 430.282,175.872 431.782,185.039 426,195.5C 417.764,203.582 408.764,204.582 399,198.5C 398.667,204.5 398.333,210.5 398,216.5C 397.283,217.044 396.783,217.711 396.5,218.5 Z M 406.5,171.5 C 419.45,170.944 424.617,176.944 422,189.5C 415.772,197.877 408.772,198.543 401,191.5C 396.391,182.952 398.225,176.286 406.5,171.5 Z"/></g>
<g><path style="opacity:0.808" fill="#283791" d="M 434.5,164.5 C 437.292,164.452 439.125,165.785 440,168.5C 445.755,164.568 451.922,163.735 458.5,166C 461.993,167.478 462.326,169.478 459.5,172C 450.915,169.377 444.415,171.877 440,179.5C 439.667,186.5 439.333,193.5 439,200.5C 437,203.167 435,203.167 433,200.5C 432.333,189.167 432.333,177.833 433,166.5C 433.717,165.956 434.217,165.289 434.5,164.5 Z"/></g>
<g><path style="opacity:0.889" fill="#283791" d="M 465.5,164.5 C 466.583,164.539 467.583,164.873 468.5,165.5C 469.666,177.486 469.833,189.486 469,201.5C 467.333,202.833 465.667,202.833 464,201.5C 463.833,195.5 463.667,189.5 463.5,183.5C 463.542,176.927 464.208,170.594 465.5,164.5 Z"/></g>
<g><path style="opacity:0.837" fill="#283791" d="M 485.5,164.5 C 493.36,164.101 499.36,167.101 503.5,173.5C 503.038,175.291 501.871,176.291 500,176.5C 497.277,175.459 494.777,173.959 492.5,172C 488.705,171.163 485.039,171.496 481.5,173C 479.473,174.396 479.14,176.062 480.5,178C 487.288,180.029 493.955,182.362 500.5,185C 504.951,191.664 503.618,196.997 496.5,201C 487.364,204.332 479.53,202.498 473,195.5C 472.277,192.875 473.277,191.208 476,190.5C 478.156,191.985 480.323,193.485 482.5,195C 487.149,197.17 491.482,196.67 495.5,193.5C 496.429,192.311 496.762,190.978 496.5,189.5C 490.428,187.977 484.428,186.143 478.5,184C 472.124,180.458 470.957,175.624 475,169.5C 478.147,166.841 481.647,165.174 485.5,164.5 Z"/></g>
<g><path style="opacity:0.867" fill="#283791" d="M 521.5,164.5 C 536.032,164.697 543.032,172.031 542.5,186.5C 532.161,186.334 521.828,186.5 511.5,187C 514.214,193.855 519.214,196.855 526.5,196C 529.267,194.107 532.267,193.107 535.5,193C 537.211,194.133 537.711,195.633 537,197.5C 530.583,202.665 523.416,203.832 515.5,201C 505.547,194.595 502.714,185.762 507,174.5C 510.652,169.272 515.485,165.939 521.5,164.5 Z M 519.5,171.5 C 527.635,169.893 532.968,172.893 535.5,180.5C 527.493,180.666 519.493,180.5 511.5,180C 513.695,176.641 516.362,173.807 519.5,171.5 Z"/></g>
</svg>
